<mxfile host="app.diagrams.net" modified="2023-05-12T13:35:42.340Z" agent="Mozilla/5.0 (Macintosh; Intel Mac OS X 10_15_7) AppleWebKit/537.36 (KHTML, like Gecko) Chrome/113.0.0.0 Safari/537.36" version="21.2.9" etag="yplMRpbKE3nQRi2jM6d4" type="github">
  <diagram name="Page-1" id="KLs-gp2S0IAGQyC93akX">
    <mxGraphModel>
      <root>
        <mxCell id="0" />
        <mxCell id="1" parent="0" />
      </root>
    </mxGraphModel>
  </diagram>
</mxfile>
